<mxfile host="Electron" modified="2023-12-15T18:22:34.356Z" agent="Mozilla/5.0 (Windows NT 10.0; Win64; x64) AppleWebKit/537.36 (KHTML, like Gecko) draw.io/22.1.2 Chrome/114.0.5735.289 Electron/25.9.4 Safari/537.36" etag="ylY0rvYTKWd1itmOytuP" version="22.1.2" type="device">
  <diagram name="Page-1" id="kasMRa_oVCi08zRnZXHq">
    <mxGraphModel dx="2261" dy="2013" grid="1" gridSize="10" guides="1" tooltips="1" connect="1" arrows="1" fold="1" page="1" pageScale="1" pageWidth="827" pageHeight="1169" math="0" shadow="0">
      <root>
        <mxCell id="0" />
        <mxCell id="1" parent="0" />
        <mxCell id="FHeqWyH2OQHjty7EJi1I-7" value="" style="rounded=1;whiteSpace=wrap;html=1;dashed=1;" vertex="1" parent="1">
          <mxGeometry x="370" y="60" width="620" height="350" as="geometry" />
        </mxCell>
        <mxCell id="FHeqWyH2OQHjty7EJi1I-1" value="Azure Kubernetes &lt;br&gt;Service" style="image;aspect=fixed;html=1;points=[];align=center;fontSize=12;image=img/lib/azure2/compute/Kubernetes_Services.svg;" vertex="1" parent="1">
          <mxGeometry x="400" y="-50" width="68" height="60" as="geometry" />
        </mxCell>
        <mxCell id="FHeqWyH2OQHjty7EJi1I-2" value="Web App Firewall" style="image;sketch=0;aspect=fixed;html=1;points=[];align=center;fontSize=12;image=img/lib/mscae/Web_App_Firewall.svg;" vertex="1" parent="1">
          <mxGeometry x="-50" y="110" width="63" height="63" as="geometry" />
        </mxCell>
        <mxCell id="FHeqWyH2OQHjty7EJi1I-3" value="Frontend hosted &lt;br&gt;on Azure App Service" style="image;aspect=fixed;html=1;points=[];align=center;fontSize=12;image=img/lib/azure2/app_services/App_Service_Domains.svg;" vertex="1" parent="1">
          <mxGeometry x="130" y="111.5" width="75" height="60" as="geometry" />
        </mxCell>
        <mxCell id="FHeqWyH2OQHjty7EJi1I-5" value="" style="html=1;verticalLabelPosition=bottom;align=center;labelBackgroundColor=#ffffff;verticalAlign=top;strokeWidth=2;strokeColor=#0080F0;shadow=0;dashed=0;shape=mxgraph.ios7.icons.user;" vertex="1" parent="1">
          <mxGeometry x="-240" y="123" width="60" height="64" as="geometry" />
        </mxCell>
        <mxCell id="FHeqWyH2OQHjty7EJi1I-6" value="VNET" style="image;aspect=fixed;html=1;points=[];align=center;fontSize=12;image=img/lib/azure2/networking/Virtual_Networks.svg;" vertex="1" parent="1">
          <mxGeometry x="860" y="390" width="67" height="40" as="geometry" />
        </mxCell>
        <mxCell id="FHeqWyH2OQHjty7EJi1I-8" value="KubernetesÂ &#xa;Cluster" style="shape=image;verticalLabelPosition=bottom;labelBackgroundColor=default;verticalAlign=top;aspect=fixed;imageAspect=0;image=https://upload.wikimedia.org/wikipedia/commons/thumb/3/39/Kubernetes_logo_without_workmark.svg/2109px-Kubernetes_logo_without_workmark.svg.png;" vertex="1" parent="1">
          <mxGeometry x="414" y="300" width="72.1" height="70" as="geometry" />
        </mxCell>
        <mxCell id="FHeqWyH2OQHjty7EJi1I-9" value="" style="rounded=1;whiteSpace=wrap;html=1;" vertex="1" parent="1">
          <mxGeometry x="580" y="69" width="380" height="190" as="geometry" />
        </mxCell>
        <mxCell id="FHeqWyH2OQHjty7EJi1I-10" value="" style="rounded=1;whiteSpace=wrap;html=1;" vertex="1" parent="1">
          <mxGeometry x="580" y="285" width="390" height="100" as="geometry" />
        </mxCell>
        <mxCell id="FHeqWyH2OQHjty7EJi1I-11" value="Monitoring namespace" style="text;html=1;strokeColor=none;fillColor=none;align=center;verticalAlign=middle;whiteSpace=wrap;rounded=0;" vertex="1" parent="1">
          <mxGeometry x="687.5" y="290" width="165" height="30" as="geometry" />
        </mxCell>
        <mxCell id="FHeqWyH2OQHjty7EJi1I-12" value="Backend Services namespaces" style="text;html=1;strokeColor=none;fillColor=none;align=center;verticalAlign=middle;whiteSpace=wrap;rounded=0;" vertex="1" parent="1">
          <mxGeometry x="680" y="69" width="190" height="30" as="geometry" />
        </mxCell>
      </root>
    </mxGraphModel>
  </diagram>
</mxfile>
